{"title":"Dont Look Up 2009 DVDRip Xvid LKRG","uid":10944318,"size":1260369682,"categoryP":"video","categoryS":"movies","magnet":"?xt=urn:btih:8027746afef7c2860fbec47b285fb2ed3fda97c9&amp;dn=Dont+Look+Up+2009+DVDRip+Xvid+LKRG&amp;tr=udp%3A%2F%2Ftracker.openbittorrent.com%3A80&amp;tr=udp%3A%2F%2Fopen.demonii.com%3A1337&amp;tr=udp%3A%2F%2Ftracker.coppersurfer.tk%3A6969&amp;tr=udp%3A%2F%2Fexodus.desync.com%3A6969","seeders":2,"leechers":4,"uploader":".BONE.","files":2,"time":1409587136,"description":"PLOT\n\nEvil spirits released from old celluloid causes a film crew to slowly go insane while in production on a new project.\n\nRuntime ..........: 1h 26mn\nFile Size ........: 1.17 GB\nResolution .......: 720 x 480 &lt;a href=&quot;\nhttp://www.imdb.com/title/tt1034305/&quot; rel=&quot;nofollow&quot; target=&quot;_NEW&quot;&gt;\nhttp://www.imdb.com/title/tt1034305/&lt;/a&gt;\nGenre ............: Horror\nLanguage .........: English\nSubtitles ........: None\nComplete name : Dont Look Up 2009 DVDRip Xvid LKRGDLUp_LKRG.avi\nFormat : AVI\nFormat/Info : Audio Video Interleave\nFile size : 1.17 GiB\nDuration : 1h 26mn\nOverall bit rate : 1 947 Kbps\nWriting application : VirtualDubMod 1.5.10.2 (build 2540/release)\nWriting library : VirtualDubMod build 2540/release\nVideo\nID : 0\nFormat : MPEG-4 Visual\nFormat profile : Advanced Simple@L5\nFormat settings, BVOP : 2\nFormat settings, QPel : No\nFormat settings, GMC : No warppoints\nFormat settings, Matrix : Default (H.263)\nMuxing mode : Packed bitstream\nCodec ID : XVID\nCodec ID/Hint : XviD\nDuration : 1h 26mn\nBit rate : 1 490 Kbps\nWidth : 720 pixels\nHeight : 480 pixels\nDisplay aspect ratio : 16:9\nFrame rate : 23.976 fps\nStandard : NTSC\nColor space : YUV\nChroma subsampling : 4:2:0\nBit depth : 8 bits\nScan type : Progressive\nCompression mode : Lossy\nBits/(Pixel*Frame) : 0.180\nStream size : 920 MiB (77%)\nWriting library : XviD 1.2.1 (UTC 2008-12-04)\nAudio\nID : 1\nFormat : AC-3\nFormat/Info : Audio Coding 3\nMode extension : CM (complete main)\nFormat settings, Endianness : Big\nCodec ID : 2000\nDuration : 1h 26mn\nBit rate mode : Constant\nBit rate : 448 Kbps\nChannel(s) : 6 channels\nChannel positions : Front: L C R, Side: L R, LFE\nSampling rate : 48.0 KHz\nBit depth : 16 bits\nCompression mode : Lossy\nStream size : 276 MiB (23%)\nAlignment : Split accross interleaves\nInterleave, duration : 42 ms (1.00 video frame)\nInterleave, preload duration : 500 ms\n &lt;a href=&quot;\nhttp://i.imgur.com/JoeE8Fq.jpg&quot; rel=&quot;nofollow&quot; target=&quot;_NEW&quot;&gt;\nhttp://i.imgur.com/JoeE8Fq.jpg&lt;/a&gt; &lt;a href=&quot;\nhttp://i.imgur.com/zJiEngo.jpg&quot; rel=&quot;nofollow&quot; target=&quot;_NEW&quot;&gt;\nhttp://i.imgur.com/zJiEngo.jpg&lt;/a&gt; &lt;a href=&quot;\nhttp://i.imgur.com/lTGLMEa.jpg&quot; rel=&quot;nofollow&quot; target=&quot;_NEW&quot;&gt;\nhttp://i.imgur.com/lTGLMEa.jpg&lt;/a&gt; &lt;a href=&quot;\nhttp://i.imgur.com/lXtr60x.jpg&quot; rel=&quot;nofollow&quot; target=&quot;_NEW&quot;&gt;\nhttp://i.imgur.com/lXtr60x.jpg&lt;/a&gt; &lt;a href=&quot;\nhttp://i.imgur.com/O8RPtea.jpg&quot; rel=&quot;nofollow&quot; target=&quot;_NEW&quot;&gt;\nhttp://i.imgur.com/O8RPtea.jpg&lt;/a&gt;","torrent":{"xt":"urn:btih:8027746afef7c2860fbec47b285fb2ed3fda97c9","amp;dn":"Dont+Look+Up+2009+DVDRip+Xvid+LKRG","amp;tr":["udp%3A%2F%2Ftracker.openbittorrent.com%3A80","udp%3A%2F%2Fopen.demonii.com%3A1337","udp%3A%2F%2Ftracker.coppersurfer.tk%3A6969","udp%3A%2F%2Fexodus.desync.com%3A6969"],"infoHash":"8027746afef7c2860fbec47b285fb2ed3fda97c9","infoHashBuffer":{"type":"Buffer","data":[128,39,116,106,254,247,194,134,15,190,196,123,40,95,178,237,63,218,151,201]},"announce":[],"urlList":[]}}